<svg width="50" height="51" viewBox="0 0 50 51" fill="none" xmlns="http://www.w3.org/2000/svg">
<path d="M0 0.634766H50V50.6348H0V0.634766ZM45.9028 38.7098C45.5389 36.4292 44.0528 34.5125 39.6472 32.7237C38.1139 32.0042 36.4111 31.507 35.9 30.3514C35.7111 29.6625 35.6833 29.2903 35.8056 28.882C36.1194 27.5375 37.7139 27.1348 38.9639 27.507C39.7778 27.757 40.5278 28.382 40.9972 29.3848C43.15 27.9764 43.15 27.9764 44.6528 27.0403C44.0889 26.1681 43.8083 25.7875 43.4333 25.4125C42.1194 23.9459 40.3694 23.1959 37.5278 23.2598L36.0611 23.4459C34.6528 23.7903 33.3083 24.5431 32.4972 25.5403C30.1222 28.2292 30.8083 32.9153 33.6833 34.857C36.525 36.982 40.6861 37.4487 41.2167 39.4487C41.7167 41.8875 39.4056 42.6681 37.1194 42.3875C35.4333 42.0098 34.4944 41.1681 33.4639 39.6042L29.6528 41.7931C30.0889 42.7903 30.5889 43.2292 31.3389 44.1042C34.9639 47.7598 44.0278 47.5737 45.6528 42.0098C45.7111 41.8237 46.1528 40.5431 45.8083 38.5737L45.9028 38.7098ZM27.1889 23.6153H22.5056C22.5056 27.6514 22.4861 31.6653 22.4861 35.7098C22.4861 38.2764 22.6167 40.632 22.1972 41.357C21.5111 42.7931 19.7361 42.6098 18.9333 42.3542C18.1083 41.9487 17.6889 41.3848 17.2028 40.5737C17.0722 40.357 16.975 40.1681 16.9389 40.1681L13.1389 42.5125C13.775 43.8264 14.7028 44.9542 15.9 45.6709C17.6806 46.7348 20.0722 47.0792 22.5778 46.5181C24.2111 46.0459 25.6194 45.0764 26.35 43.5764C27.4167 41.6403 27.1889 39.2625 27.1806 36.607C27.2028 32.3264 27.1806 28.0431 27.1806 23.732L27.1889 23.6153Z" fill="#ECEAF1"/>
</svg>
