<svg width="50" height="50" viewBox="0 0 50 50" fill="none" xmlns="http://www.w3.org/2000/svg">
<path d="M45.1111 0H4.88889C3.59228 0 2.34877 0.515078 1.43192 1.43192C0.515078 2.34877 0 3.59228 0 4.88889V45.1111C0 46.4077 0.515078 47.6512 1.43192 48.5681C2.34877 49.4849 3.59228 50 4.88889 50H45.1111C45.7531 50 46.3889 49.8735 46.982 49.6279C47.5752 49.3822 48.1141 49.0221 48.5681 48.5681C49.0221 48.1141 49.3822 47.5752 49.6279 46.982C49.8735 46.3889 50 45.7531 50 45.1111V4.88889C50 4.24687 49.8735 3.61114 49.6279 3.01799C49.3822 2.42484 49.0221 1.8859 48.5681 1.43192C48.1141 0.977947 47.5752 0.617834 46.982 0.372144C46.3889 0.126455 45.7531 0 45.1111 0ZM29 27.7778H22.75V45.6667H17.7778V27.7778H11.5278V23.7222H29V27.7778ZM45.1111 42.4444C44.709 43.2995 44.061 44.0152 43.25 44.5C42.3967 45.0252 41.4557 45.3921 40.4722 45.5833C39.3757 45.8098 38.2586 45.9215 37.1389 45.9167C35.9932 45.9157 34.8499 45.8134 33.7222 45.6111C32.7637 45.4148 31.8315 45.1072 30.9444 44.6944V39.9444L30.7778 39.7778H30.9444V39.9722C31.7799 40.6241 32.7189 41.1311 33.7222 41.4722C34.7241 41.8537 35.7891 42.0422 36.8611 42.0278C37.4213 42.0376 37.9806 41.9816 38.5278 41.8611C38.9387 41.7649 39.3323 41.6056 39.6944 41.3889C39.978 41.2161 40.2161 40.978 40.3889 40.6944C40.5599 40.3716 40.6351 40.0065 40.6056 39.6423C40.5761 39.2782 40.443 38.93 40.2222 38.6389C39.9611 38.2728 39.6308 37.9614 39.25 37.7222C38.7876 37.3971 38.2945 37.118 37.7778 36.8889L35.9167 36.1111C34.4434 35.5043 33.1381 34.5515 32.1111 33.3333C31.2517 32.2973 30.7976 30.9845 30.8333 29.6389C30.801 28.6166 31.0305 27.6031 31.5 26.6944C31.9481 25.9024 32.5761 25.2269 33.3333 24.7222C34.177 24.1609 35.1197 23.765 36.1111 23.5556C37.195 23.3061 38.3045 23.1849 39.4167 23.1944C40.4295 23.1803 41.4418 23.2453 42.4444 23.3889C43.2786 23.5193 44.0976 23.7333 44.8889 24.0278V28.6111C44.5232 28.3505 44.1324 28.1271 43.7222 27.9444C43.2805 27.7543 42.8256 27.5965 42.3611 27.4722C41.9159 27.3419 41.4606 27.249 41 27.1944C40.575 27.1544 40.1472 27.1544 39.7222 27.1944C39.1988 27.1858 38.6763 27.2418 38.1667 27.3611C37.7486 27.4488 37.3459 27.5986 36.9722 27.8056C36.6805 27.9774 36.4332 28.2153 36.25 28.5C36.0837 28.7767 35.9972 29.0939 36 29.4167C35.9932 29.7612 36.09 30.0999 36.2778 30.3889C36.5059 30.7044 36.7881 30.9771 37.1111 31.1944C37.5028 31.5062 37.932 31.7675 38.3889 31.9722L40.1389 32.75C40.9435 33.0826 41.7233 33.4725 42.4722 33.9167C43.1308 34.2771 43.7303 34.7361 44.25 35.2778C44.7592 35.7712 45.157 36.3679 45.4167 37.0278C45.683 37.7861 45.8147 38.5852 45.8056 39.3889C45.7857 40.4264 45.5491 41.4482 45.1111 42.3889V42.4444Z" fill="#ECEAF1"/>
</svg>
