<svg width="50" height="56" viewBox="0 0 50 56" fill="none" xmlns="http://www.w3.org/2000/svg">
<path fill-rule="evenodd" clip-rule="evenodd" d="M26.4421 0.376015C25.5501 -0.125338 24.4499 -0.125338 23.5565 0.376015C21.3499 1.615 16.9248 4.09931 12.4997 6.58359C8.07478 9.06774 3.64997 11.5519 1.44348 12.7908C0.55006 13.2921 0 14.2186 0 15.2213V40.0495C0 41.0522 0.55006 41.9773 1.44212 42.4787C4.08725 43.9631 9.91445 47.2346 15.1112 50.1522C18.5901 52.1053 21.7864 53.8998 23.5565 54.8935C24.4487 55.3948 25.5487 55.3948 26.4421 54.8935C29.3153 53.2812 35.943 49.5602 41.4391 46.4745C44.3898 44.8179 47.0144 43.3444 48.5565 42.4787C49.4499 41.9773 50 41.051 50 40.0481V15.22C50 14.2173 49.4499 13.2908 48.5565 12.7908C45.8882 11.2934 39.9814 7.97716 34.7503 5.04027C31.3248 3.11707 28.189 1.35655 26.4421 0.376015ZM25 9.21093C31.7471 9.21093 37.6517 12.8463 40.8606 18.2638L32.8616 22.8351C31.2424 20.1893 28.3256 18.4226 25 18.4226C19.9158 18.4226 15.7895 22.5495 15.7895 27.6343C15.7895 32.7178 19.9171 36.8459 25 36.8459C28.3815 36.8459 31.3402 35.0188 32.9421 32.2989L41.014 36.7407C37.8423 42.3038 31.8562 46.0577 25 46.0577C14.833 46.0577 6.5789 37.8026 6.5789 27.6343C6.5789 17.4659 14.833 9.21093 25 9.21093Z" fill="#ECEAF1"/>
</svg>
