<svg width="50" height="56" viewBox="0 0 50 56" fill="none" xmlns="http://www.w3.org/2000/svg">
<path d="M39.4737 26.3189V28.9498H42.1054V26.3189H39.4737Z" fill="#ECEAF1"/>
<path fill-rule="evenodd" clip-rule="evenodd" d="M26.4421 0.385706C25.55 -0.115548 24.45 -0.115548 23.5566 0.385706C21.3502 1.62411 16.926 4.107 12.5014 6.59002C8.07596 9.07359 3.65023 11.5573 1.44343 12.796C0.549965 13.2972 0 14.2233 0 15.2257V40.0451C0 41.0475 0.549965 41.9722 1.44209 42.4735C4.20271 44.0221 10.4294 47.5166 15.7881 50.5241L15.8186 50.5412C19.0193 52.3375 21.9071 53.9582 23.5566 54.8837C24.4487 55.385 25.5488 55.385 26.4421 54.8837C29.1933 53.3404 35.3871 49.8643 40.7334 46.8638L40.9623 46.7354C44.1057 44.9713 46.9319 43.3852 48.5566 42.4735C49.45 41.9722 50 41.0461 50 40.0438V15.2245C50 14.222 49.45 13.2959 48.5566 12.796C45.8226 11.2623 39.6887 7.81981 34.3654 4.83226L34.1955 4.73689C30.9886 2.93712 28.0942 1.31274 26.4421 0.385706ZM25 9.21792C31.7471 9.21792 37.6516 12.852 40.8605 18.2675L32.8616 22.8371C31.2423 20.1923 28.3256 18.4263 25 18.4263C19.9158 18.4263 15.7894 22.5517 15.7894 27.6347C15.7894 32.7165 19.9171 36.8432 25 36.8432C28.3816 36.8432 31.3404 35.0167 32.9423 32.2975L41.0142 36.7377C37.8425 42.2989 31.8563 46.0515 25 46.0515C14.8329 46.0515 6.57901 37.7995 6.57901 27.6347C6.57901 17.4699 14.8329 9.21792 25 9.21792ZM38.1579 22.3726H39.4737V25.0034H42.1054V22.3726H43.4211V25.0034H46.0527V26.3189H43.4211V28.9498H46.0527V30.2653H43.4211V32.8964H42.1054V30.2653H39.4737V32.8964H38.1579V30.2653H35.5264V28.9498H38.1579V26.3189H35.5264V25.0034H38.1579V22.3726Z" fill="#ECEAF1"/>
</svg>
