<svg width="50" height="70" viewBox="0 0 50 70" fill="none" xmlns="http://www.w3.org/2000/svg">
<path d="M1.654 45.1669L8.45994 1.32752C8.5099 1.00286 8.66058 0.702148 8.89066 0.467939C9.12074 0.23373 9.41856 0.0778842 9.74199 0.0224555C10.0654 -0.0329731 10.3981 0.014822 10.6929 0.159078C10.9877 0.303334 11.2297 0.536745 11.3847 0.826282L18.7051 14.581L1.654 45.1669ZM50 55.8035L43.5187 15.459C43.4699 15.1766 43.3448 14.913 43.157 14.6968C42.9691 14.4805 42.7258 14.3199 42.4533 14.2323C42.1807 14.1447 41.8894 14.1334 41.611 14.1998C41.3325 14.2661 41.0775 14.4075 40.8736 14.6086L0 55.8035L22.6174 68.5626C24.0366 69.3577 25.7666 69.3577 27.1858 68.5626L50 55.8035ZM31.6195 20.5958L26.3812 10.5607C26.2488 10.3088 26.0501 10.0978 25.8067 9.95071C25.5633 9.80357 25.2844 9.7258 25 9.7258C24.7156 9.7258 24.4367 9.80357 24.1933 9.95071C23.9498 10.0978 23.7512 10.3088 23.6188 10.5607L0.618094 51.8247L31.6195 20.5958Z" fill="#ECEAF1"/>
</svg>
