<svg width="50" height="50" viewBox="0 0 50 50" fill="none" xmlns="http://www.w3.org/2000/svg">
<path d="M25.0028 0.143557C11.1887 0.137948 0 11.3661 0 25.2246C0 36.1836 6.99922 45.4992 16.7467 48.9204C18.0594 49.2513 17.8583 48.3147 17.8583 47.6753V43.3287C10.2782 44.2205 9.97095 39.1841 9.46263 38.3428C8.43481 36.5818 6.00492 36.1331 6.73109 35.2918C8.45716 34.4001 10.2167 35.5162 12.2556 38.5391C13.7303 40.732 16.6071 40.3619 18.065 39.9973C18.3834 38.6793 19.0649 37.5015 20.0034 36.5874C12.1495 35.174 8.8761 30.362 8.8761 24.6413C8.8761 21.8651 9.78662 19.3133 11.5741 17.255C10.4346 13.8619 11.6803 10.9567 11.8478 10.5248C15.0933 10.2332 18.4672 12.858 18.7297 13.0655C20.5731 12.5663 22.679 12.3027 25.0363 12.3027C27.4048 12.3027 29.5163 12.5775 31.3764 13.0823C32.0076 12.6 35.1357 10.3454 38.1522 10.6202C38.3142 11.052 39.5319 13.8899 38.4594 17.2382C40.2692 19.3021 41.1909 21.8764 41.1909 24.6582C41.1909 30.39 37.8952 35.2077 30.019 36.5986C30.6936 37.2647 31.2293 38.0591 31.5947 38.9354C31.9601 39.8117 32.1479 40.7523 32.1472 41.7023V48.0118C32.1919 48.5166 32.1472 49.0157 32.9851 49.0157C42.8779 45.6675 50 36.2845 50 25.2302C50 11.3661 38.8057 0.143557 25.0028 0.143557Z" fill="#ECEAF1"/>
</svg>
