<svg width="50" height="50" viewBox="0 0 50 50" fill="none" xmlns="http://www.w3.org/2000/svg">
<path fill-rule="evenodd" clip-rule="evenodd" d="M11.379 8.46858C10.8103 8.45804 10.4078 8.53026 9.9827 8.62356V8.70078H10.0604C10.3322 9.2582 10.8113 9.61716 11.1466 10.0974C11.4043 10.6405 11.6629 11.1829 11.9214 11.7253C11.9478 11.6995 11.9739 11.674 11.9992 11.6481C12.4802 11.31 12.6994 10.7686 12.6973 9.94213C12.5044 9.73919 12.4757 9.48565 12.3091 9.24397C12.0882 8.92164 11.6587 8.73952 11.379 8.46858ZM48.9139 48.2537C49.28 48.5223 49.5253 48.9387 50 49.1073V49.0296C49.7501 48.7128 49.6866 48.2756 49.4573 47.9435C49.1221 47.6082 48.7842 47.2717 48.449 46.9351C47.4627 45.6266 46.2122 44.478 44.8817 43.5234C43.822 42.7614 41.4468 41.7336 41.004 40.4993C40.9787 40.473 40.9524 40.4469 40.926 40.4205C41.678 40.3362 42.559 40.0642 43.253 39.8779C44.4189 39.5653 45.4613 39.6465 46.6647 39.3352C47.2084 39.1795 47.7508 39.024 48.2935 38.8703V38.559C47.6849 37.9344 47.2511 37.1079 46.588 36.5426C44.8506 35.0646 42.9559 33.5865 41.0038 32.3552C39.9221 31.6715 38.5835 31.228 37.4363 30.6487C37.0504 30.4542 36.3731 30.3527 36.1177 30.0283C35.516 29.2597 35.1874 28.2859 34.7224 27.3911C33.7494 25.5164 32.7924 23.4691 31.9298 21.4967C31.3423 20.152 30.9578 18.8258 30.2243 17.619C26.703 11.8295 22.9117 8.3347 17.0405 4.89977C15.7902 4.16946 14.2863 3.88113 12.6973 3.50424C11.8447 3.45285 10.9905 3.4004 10.1379 3.34901C9.61741 3.13157 9.07607 2.49482 8.58717 2.18567C6.6416 0.956972 1.65169 -1.71628 0.211619 1.79824C-0.698176 4.01607 1.57051 6.18039 2.38253 7.30472C2.9526 8.09302 3.68134 8.97725 4.08932 9.86359C4.35683 10.4463 4.40242 11.0311 4.63304 11.6476C5.19652 13.1667 5.68621 14.8192 6.4152 16.2235C6.78444 16.9335 7.19111 17.6822 7.65708 18.3171C7.94304 18.7069 8.43167 18.8785 8.50836 19.4805C8.03054 20.1507 8.00313 21.1907 7.73456 22.0396C6.52221 25.8617 6.97948 30.6115 8.74293 33.4405C9.28322 34.3084 10.5578 36.1715 12.3091 35.4565C13.8412 34.8324 13.4996 32.8979 13.9379 31.1913C14.0365 30.8036 13.9764 30.5193 14.1703 30.2607V30.3379C14.6363 31.2686 15.1017 32.1992 15.5667 33.1295C16.6003 34.7934 18.4339 36.5334 19.9878 37.7059C20.7924 38.3142 21.4268 39.3663 22.4692 39.7224V39.6436H22.3914C22.1885 39.3302 21.8728 39.1987 21.6166 38.9465C21.0094 38.3511 20.3344 37.6116 19.8321 36.9297C18.4183 35.0113 17.1699 32.9113 16.0324 30.7259C15.4886 29.6819 15.0164 28.5305 14.558 27.4686C14.3817 27.0588 14.3838 26.4397 14.0154 26.2275C13.5136 27.0055 12.7748 27.6354 12.3866 28.5542C11.7662 30.0233 11.6863 31.8146 11.4562 33.6725C11.3202 33.7215 11.3806 33.688 11.3005 33.7497C10.2199 33.4898 9.84064 32.3776 9.43951 31.4235C8.42455 29.0115 8.23611 25.1269 9.1293 22.3498C9.36044 21.6316 10.4062 19.3685 9.98191 18.7048C9.78002 18.0423 9.11481 17.6598 8.7424 17.1535C8.2796 16.5279 7.81943 15.7048 7.49947 14.9818C6.6698 13.1011 6.28184 10.9898 5.4071 9.0882C4.98857 8.17973 4.28145 7.25939 3.70057 6.45106C3.0575 5.55603 2.3372 4.89714 1.83934 3.81392C1.66197 3.42939 1.42081 2.81399 1.68384 2.41839C1.76686 2.15141 1.88546 2.04019 2.14981 1.95295C2.60023 1.60611 3.85186 2.06839 4.32072 2.26316C5.56365 2.77946 6.60259 3.27152 7.65602 3.96916C8.16126 4.3044 8.67282 4.95327 9.28348 5.13276H9.98164C11.0743 5.3834 12.2975 5.21103 13.3167 5.52071C15.1197 6.06864 16.7353 6.92098 18.2025 7.84765C22.6721 10.6695 26.3271 14.6877 28.8272 19.4805C29.2294 20.2522 29.4039 20.9886 29.7576 21.8074C30.4721 23.4581 31.3732 25.1562 32.0842 26.7707C32.7935 28.3805 33.485 30.0059 34.4879 31.3463C35.015 32.0505 37.0523 32.4285 37.9787 32.8201C38.6276 33.0939 39.6905 33.3802 40.3043 33.7497C41.4792 34.4584 42.6159 35.3012 43.7171 36.0771C44.2674 36.4654 45.9597 37.3156 46.043 38.0151C43.316 37.9429 41.2325 38.1961 39.4514 38.9467C38.9451 39.1594 38.1384 39.1658 38.0551 39.7991C38.3334 40.0906 38.3774 40.527 38.5988 40.8852C39.0229 41.5736 39.7408 42.4953 40.382 42.9797C41.0823 43.5081 41.8037 44.0734 42.5532 44.5307C43.8881 45.3451 45.3788 45.8097 46.6634 46.6249C47.4235 47.1062 48.1754 47.711 48.9139 48.2537Z" fill="#ECEAF1"/>
</svg>
