<svg width="50" height="51" viewBox="0 0 50 51" fill="none" xmlns="http://www.w3.org/2000/svg">
<mask id="mask0_146_2184" style="mask-type:luminance" maskUnits="userSpaceOnUse" x="0" y="0" width="36" height="39">
<path d="M0 0.671387H35.533V38.8025H0V0.671387Z" fill="white"/>
</mask>
<g mask="url(#mask0_146_2184)">
<path d="M25.6362 0.671484C23.5926 0.677999 22.1758 0.858015 20.4633 1.1536C15.4063 2.03386 14.485 3.8826 14.485 7.28944V12.4963H26.3129V15.1242H8.31871C4.85436 15.1242 1.82241 16.7559 0.861713 20.6674C-0.223765 25.1569 -0.272487 27.9686 0.861713 32.6565C1.72256 36.1528 3.61903 38.774 7.08452 38.774H11.8578V32.0679C11.8578 28.171 15.3879 24.3213 19.4331 24.3213H28.9428C32.2586 24.3213 35.5139 21.8748 35.5139 18.5704V7.28944C35.5139 4.08485 33.2021 1.68841 29.9705 1.15105C30.0506 1.14312 27.6627 0.663553 25.6362 0.671484ZM19.0861 5.92693C20.1651 5.92693 21.0575 6.81639 21.0575 7.90045C21.0575 8.99485 20.1651 9.86859 19.0861 9.86859C17.986 9.86859 17.1147 8.99613 17.1147 7.90045C17.1147 6.82035 17.986 5.92693 19.0861 5.92693Z" fill="#ECEAF1"/>
</g>
<mask id="mask1_146_2184" style="mask-type:luminance" maskUnits="userSpaceOnUse" x="14" y="12" width="36" height="39">
<path d="M14.467 12.4785H50V50.5983H14.467V12.4785Z" fill="white"/>
</mask>
<g mask="url(#mask1_146_2184)">
<path d="M24.3626 50.5987C26.4062 50.5921 27.823 50.412 29.5355 50.1165C34.5926 49.2362 35.5138 47.3876 35.5138 43.9806V38.7738H23.6859V36.146H41.6815C45.1459 36.146 48.1777 34.5141 49.1384 30.6028C50.224 26.1131 50.2726 23.3014 49.1384 18.6135C48.2763 15.1173 46.3799 12.4961 42.9143 12.4961H38.141V19.2021C38.141 23.0992 34.6111 26.9488 30.5659 26.9488H21.056C17.7403 26.9488 14.485 29.3952 14.485 32.6997V43.9806C14.485 47.1852 16.7967 49.5816 20.0283 50.1191C19.9482 50.1269 22.3361 50.6065 24.3626 50.5987ZM30.9141 45.3431C29.835 45.3431 28.9427 44.4537 28.9427 43.3698C28.9427 42.2752 29.835 41.4015 30.9141 41.4015C32.0141 41.4015 32.8854 42.2739 32.8854 43.3698C32.8854 44.4497 32.0128 45.3431 30.9141 45.3431Z" fill="#ECEAF1"/>
</g>
</svg>
