<svg width="50" height="31" viewBox="0 0 50 31" fill="none" xmlns="http://www.w3.org/2000/svg">
<path d="M41.25 9.34461C39.3751 8.69869 37.7202 7.53732 36.475 5.99365C35.1026 4.27374 33.3551 2.89061 31.3663 1.95006C29.3774 1.00951 27.1997 0.53646 25 0.567105C22.0409 0.357484 19.1115 1.27042 16.795 3.1241C14.4786 4.97779 12.9451 7.63621 12.5 10.57C13.3767 9.10265 14.6961 7.95138 16.2685 7.28182C17.8408 6.61225 19.585 6.45893 21.25 6.84389C23.1217 7.5086 24.774 8.67674 26.025 10.2199C27.4049 11.926 29.1557 13.2949 31.1442 14.2222C33.1326 15.1496 35.3064 15.611 37.5 15.5714C40.4591 15.781 43.3885 14.8681 45.705 13.0144C48.0214 11.1607 49.5549 8.50228 50 5.56853C49.1392 7.05338 47.824 8.22205 46.2484 8.90198C44.6729 9.58192 42.9205 9.7371 41.25 9.34461ZM8.75 21.7982C10.6249 22.4441 12.2798 23.6054 13.525 25.1491C14.8974 26.869 16.6449 28.2522 18.6337 29.1927C20.6226 30.1333 22.8003 30.6063 25 30.5757C27.9591 30.7853 30.8885 29.8723 33.205 28.0187C35.5214 26.165 37.0549 23.5066 37.5 20.5728C36.6233 22.0401 35.3039 23.1914 33.7315 23.8609C32.1592 24.5305 30.415 24.6838 28.75 24.2989C26.8783 23.6342 25.226 22.466 23.975 20.9229C22.5914 19.221 20.8399 17.8551 18.8523 16.9282C16.8647 16.0012 14.6928 15.5373 12.5 15.5714C9.54091 15.3618 6.61146 16.2747 4.29501 18.1284C1.97857 19.9821 0.445105 22.6405 0 25.5742C0.860767 24.0894 2.17602 22.9207 3.75158 22.2408C5.32715 21.5608 7.07952 21.4057 8.75 21.7982Z" fill="#ECEAF1"/>
</svg>
