<svg width="51" height="58" viewBox="0 0 51 58" fill="none" xmlns="http://www.w3.org/2000/svg">
<path d="M0.5 0.0932617L4.99775 51.2035L25.4966 57.0498L45.9137 51.2035L50.5 0.0932617H0.5ZM41.0479 12.2171L40.7208 15.4482L40.6049 16.7832H16.6578L17.2166 23.2318H40.0529L39.8281 24.8954L38.3833 41.4757L38.2675 42.5847L25.5239 46.1171V46.1377H25.4421L25.4216 46.1445V46.1377H25.4148L12.5622 42.5779L11.7853 32.679H17.9935L18.4365 37.69L25.4148 39.5863H25.4421L32.3931 37.6969L33.17 29.5778H25.4216V29.571H11.4582L9.90439 12.2171L9.78854 10.5535H41.1569L41.0479 12.2171Z" fill="#ECEAF1"/>
</svg>
