<svg width="50" height="46" viewBox="0 0 50 46" fill="none" xmlns="http://www.w3.org/2000/svg">
<path d="M25.0015 27.4585C27.4637 27.4585 29.4598 25.4625 29.4598 23.0003C29.4598 20.538 27.4637 18.542 25.0015 18.542C22.5393 18.542 20.5432 20.538 20.5432 23.0003C20.5432 25.4625 22.5393 27.4585 25.0015 27.4585Z" fill="#ECEAF1"/>
<path d="M12.5181 31.8658L11.5315 31.6136C4.20351 29.7628 0 26.6158 0 22.9917C0 19.3652 4.206 16.2207 11.5315 14.3699L12.5181 14.1202L12.7953 15.0967C13.536 17.6536 14.4849 20.1454 15.6326 22.5472L15.8449 22.9917L15.6326 23.4363C14.4837 25.8415 13.5321 28.3342 12.7953 30.8917L12.5181 31.8658ZM11.077 16.6428C5.50977 18.2113 2.09051 20.604 2.09051 22.9917C2.09051 25.3745 5.50727 27.7697 11.077 29.3357C11.7588 27.1678 12.583 25.0473 13.5371 22.9917C12.5761 20.9328 11.7542 18.8117 11.077 16.6428ZM37.4819 31.8658L37.2071 30.8867C36.4645 28.3294 35.5148 25.8369 34.3673 23.4338L34.155 22.9917L34.3673 22.5447C35.5163 20.1444 36.4629 17.6493 37.2071 15.0917L37.4819 14.1177L38.4685 14.3674C45.799 16.2182 50 19.3627 50 22.9917C50 26.6183 45.7965 29.7628 38.4685 31.6136L37.4819 31.8658ZM36.4579 22.9917C37.4569 25.1547 38.2886 27.2827 38.923 29.3357C44.4927 27.7697 47.912 25.3745 47.912 22.9917C47.912 20.604 44.4952 18.2138 38.923 16.6428C38.2419 18.811 37.4184 20.932 36.4579 22.9917Z" fill="#ECEAF1"/>
<path d="M11.0621 16.6316L10.7873 15.6575C8.72431 8.39442 9.34871 3.19186 12.5032 1.37859C15.5878 -0.407218 20.5506 1.70328 25.7481 7.03571L26.4575 7.76502L25.7481 8.49183C23.9021 10.4117 22.2148 12.4782 20.7029 14.671L20.4207 15.0756L19.9312 15.1155C17.2726 15.3243 14.6356 15.7495 12.0462 16.3868L11.0621 16.6316ZM15.0133 2.82221C14.4539 2.82221 13.9593 2.9446 13.5422 3.18437C11.4742 4.37574 11.1095 8.5243 12.5332 14.124C14.7586 13.6319 17.0039 13.2798 19.2668 13.0825C20.5768 11.2244 22.006 9.45316 23.5452 7.78C20.2908 4.61551 17.2187 2.82221 15.0133 2.82221ZM34.9869 45.2419C32.0197 45.2419 28.2083 43.004 24.2521 38.9429L23.5452 38.2161L24.2521 37.4918C26.0984 35.5688 27.7865 33.4999 29.2998 31.3051L29.5795 30.9055L30.064 30.8581C32.7235 30.653 35.3615 30.2294 37.9515 29.5918L38.9381 29.342L39.2153 30.3186C41.2684 37.5767 40.6465 42.7867 37.497 44.6C36.7323 45.0335 35.8658 45.2551 34.9869 45.2419ZM26.4575 38.1986C29.7094 41.3631 32.7839 43.1589 34.9869 43.1589C35.5488 43.1589 36.0434 43.034 36.458 42.7967C38.5285 41.6029 38.8956 37.4468 37.467 31.8471C35.2441 32.3417 32.9962 32.6963 30.7284 32.8936C29.4239 34.7547 27.9971 36.5269 26.4575 38.1986Z" fill="#ECEAF1"/>
<path d="M38.9381 16.6327L37.9515 16.3854C35.3616 15.7461 32.7236 15.3209 30.064 15.1141L29.5795 15.0717L29.2997 14.6671C27.7885 12.4731 26.1003 10.4065 24.252 8.48793L23.5452 7.76112L24.252 7.03681C29.4471 1.70687 34.4074 -0.403622 37.4969 1.37968C40.6489 3.19546 41.2758 8.39802 39.2153 15.6586L38.9381 16.6327ZM30.7284 13.0836C33.1111 13.2959 35.3689 13.653 37.467 14.1251C38.8931 8.52539 38.5285 4.37684 36.4579 3.18297C34.3999 1.9916 30.5261 3.81487 26.4574 7.7811C27.996 9.45451 29.4246 11.2228 30.7284 13.0836ZM15.0133 45.243C14.1345 45.2556 13.2681 45.034 12.5032 44.6011C9.34868 42.7878 8.72427 37.5803 10.7848 30.3197L11.0546 29.3431L12.0411 29.5929C14.4488 30.1998 17.1013 30.6269 19.9286 30.8592L20.4132 30.9066L20.6954 31.3062C22.204 33.4992 23.8924 35.5697 25.7406 37.4929L26.4499 38.2172L25.7406 38.944C21.7869 43.0076 17.9755 45.243 15.0133 45.243ZM12.5332 31.8507C11.1095 37.4504 11.4742 41.6065 13.5422 42.8003C15.6027 43.9742 19.4641 42.1634 23.5452 38.1997C22.0065 36.526 20.5774 34.7549 19.2668 32.8972C17.0016 32.6969 14.7522 32.3473 12.5332 31.8507Z" fill="#ECEAF1"/>
<path d="M25.001 33.1604C23.2852 33.1604 21.5244 33.088 19.756 32.9406L19.2665 32.8982L18.9843 32.4936C17.9871 31.0597 17.0489 29.5857 16.1719 28.0753C15.3015 26.5608 14.4924 25.0118 13.7467 23.4322L13.5369 22.9901L13.7467 22.543C14.4935 20.9645 15.3003 19.416 16.1719 17.9024C17.0386 16.4138 17.9852 14.9252 18.9843 13.4816L19.2665 13.082L19.756 13.037C23.2449 12.7448 26.7522 12.7448 30.2411 13.037L30.7256 13.0845L31.0078 13.4841C33.0054 16.3533 34.7599 19.3843 36.2529 22.5455L36.4602 22.9926L36.2529 23.4347C34.764 26.5981 33.0094 29.6294 31.0078 32.496L30.7256 32.9007L30.2411 32.9431C28.4777 33.0855 26.7144 33.1604 25.001 33.1604ZM20.4204 30.9026C23.505 31.1348 26.4971 31.1348 29.5792 30.9026C31.2998 28.383 32.8293 25.7381 34.1549 22.9901C32.834 20.2396 31.3043 17.5944 29.5792 15.0776C26.5308 14.8428 23.4688 14.8428 20.4204 15.0776C18.6939 17.5934 17.1641 20.2388 15.8447 22.9901C17.1732 25.7366 18.7026 28.3813 20.4204 30.9026Z" fill="#ECEAF1"/>
</svg>
