<svg width="32" height="32" viewBox="0 0 32 32" fill="none" xmlns="http://www.w3.org/2000/svg">
<path d="M6.66663 19.9998H5.33329C4.62605 19.9998 3.94777 19.7189 3.44767 19.2188C2.94758 18.7187 2.66663 18.0404 2.66663 17.3332V5.33317C2.66663 4.62593 2.94758 3.94765 3.44767 3.44755C3.94777 2.94746 4.62605 2.6665 5.33329 2.6665H17.3333C18.0405 2.6665 18.7188 2.94746 19.2189 3.44755C19.719 3.94765 20 4.62593 20 5.33317V6.6665M14.6666 11.9998H26.6666C28.1394 11.9998 29.3333 13.1937 29.3333 14.6665V26.6665C29.3333 28.1393 28.1394 29.3332 26.6666 29.3332H14.6666C13.1939 29.3332 12 28.1393 12 26.6665V14.6665C12 13.1937 13.1939 11.9998 14.6666 11.9998Z" stroke="white" stroke-opacity="0.8" stroke-width="3" stroke-linecap="round" stroke-linejoin="round"/>
</svg>
